<svg width="200" height="56" viewBox="0 0 200 56" fill="none" xmlns="http://www.w3.org/2000/svg">
<path fill-rule="evenodd" clip-rule="evenodd" d="M172 1.40024H28C13.3092 1.40024 1.4 13.3095 1.4 28.0002C1.4 42.691 13.3092 54.6002 28 54.6002H172C186.691 54.6002 198.6 42.691 198.6 28.0002C198.6 13.3095 186.691 1.40024 172 1.40024ZM28 0.000244141C12.536 0.000244141 0 12.5363 0 28.0002C0 43.4642 12.536 56.0002 28 56.0002H172C187.464 56.0002 200 43.4642 200 28.0002C200 12.5363 187.464 0.000244141 172 0.000244141H28Z" fill="#458FF6"/>
<path d="M78.14 21.1842L72.434 34.0002H70.544L64.838 21.1842H67.25L71.516 31.0842L75.782 21.1842H78.14Z" fill="#458FF6"/>
<path d="M79.1967 24.9102H81.4287V34.0002H79.1967V24.9102ZM81.5547 20.7882V23.0022H79.0527V20.7882H81.5547Z" fill="#458FF6"/>
<path d="M91.846 29.5722H85.582C85.63 30.5442 85.87 31.2642 86.302 31.7322C86.746 32.1882 87.4 32.4162 88.264 32.4162C89.26 32.4162 90.184 32.0922 91.036 31.4442L91.684 32.9922C91.252 33.3402 90.718 33.6222 90.082 33.8382C89.458 34.0422 88.822 34.1442 88.174 34.1442C86.686 34.1442 85.516 33.7242 84.664 32.8842C83.812 32.0442 83.386 30.8922 83.386 29.4282C83.386 28.5042 83.572 27.6822 83.944 26.9622C84.316 26.2422 84.838 25.6842 85.51 25.2882C86.182 24.8802 86.944 24.6762 87.796 24.6762C89.044 24.6762 90.028 25.0842 90.748 25.9002C91.48 26.7042 91.846 27.8142 91.846 29.2302V29.5722ZM87.85 26.2962C87.25 26.2962 86.758 26.4762 86.374 26.8362C86.002 27.1842 85.762 27.6942 85.654 28.3662H89.884C89.812 27.6822 89.602 27.1662 89.254 26.8182C88.918 26.4702 88.45 26.2962 87.85 26.2962Z" fill="#458FF6"/>
<path d="M108.065 24.9102L104.501 34.0002H102.539L100.289 28.0422L98.0932 34.0002H96.1132L92.5492 24.9102H94.8532L97.1932 31.3182L99.5512 24.9102H101.171L103.529 31.3722L105.869 24.9102H108.065Z" fill="#458FF6"/>
<path d="M123.117 24.9102V34.0002H120.903V32.5422C120.627 33.0462 120.231 33.4422 119.715 33.7302C119.199 34.0062 118.611 34.1442 117.951 34.1442C117.159 34.1442 116.457 33.9522 115.845 33.5682C115.233 33.1842 114.759 32.6382 114.423 31.9302C114.087 31.2222 113.919 30.4002 113.919 29.4642C113.919 28.5282 114.087 27.7002 114.423 26.9802C114.771 26.2482 115.251 25.6842 115.863 25.2882C116.475 24.8802 117.171 24.6762 117.951 24.6762C118.611 24.6762 119.199 24.8202 119.715 25.1082C120.231 25.3842 120.627 25.7742 120.903 26.2782V24.9102H123.117ZM118.563 32.3802C119.307 32.3802 119.883 32.1222 120.291 31.6062C120.699 31.0902 120.903 30.3642 120.903 29.4282C120.903 28.4682 120.699 27.7302 120.291 27.2142C119.883 26.6982 119.301 26.4402 118.545 26.4402C117.801 26.4402 117.219 26.7102 116.799 27.2502C116.391 27.7782 116.187 28.5162 116.187 29.4642C116.187 30.4002 116.391 31.1202 116.799 31.6242C117.219 32.1282 117.807 32.3802 118.563 32.3802Z" fill="#458FF6"/>
<path d="M125.568 20.7522H127.8V34.0002H125.568V20.7522Z" fill="#458FF6"/>
<path d="M130.261 20.7522H132.493V34.0002H130.261V20.7522Z" fill="#458FF6"/>
</svg>
